<svg width="170" height="240" viewBox="0 0 170 240" fill="none" xmlns="http://www.w3.org/2000/svg">
<path d="M132.447 135.23C132.447 135.23 141.676 136.501 148.309 140.191C154.944 143.882 161.288 147.919 162.733 148.788C164.172 149.65 164.748 150.229 166.48 148.788C168.209 147.344 167.633 138.689 167.633 138.689L169.362 81.778C169.362 81.778 169.938 81.858 169.362 79.269C168.787 76.681 169.94 65.373 167.918 60.354C165.902 55.337 160.424 52.455 154.079 50.436C147.735 48.415 131.967 46.23 131.967 46.23L132.447 135.23Z" fill="#1C1819"/>
<path d="M135.972 61.164C135.972 66.284 135.988 66.299 140.954 67.305C144.992 68.127 144.757 63.694 144.757 62.46L144.896 57.341C144.896 56.148 144.896 53.174 140.411 52.454C134.984 51.579 135.939 53.88 135.973 58.57L135.972 61.164Z" fill="white"/>
<path d="M150.681 65.841C150.681 70.959 150.594 70.913 154.51 71.984C155.999 72.388 156.971 70.914 156.971 68.079L156.818 62.604C156.818 61.411 157.056 57.408 154.51 56.937C149.75 56.059 150.649 58.558 150.681 63.246V65.841Z" fill="white"/>
<path d="M161.354 70.025C161.354 75.144 162.058 75.177 164.458 75.966C165.925 76.448 165.757 74.883 165.757 72.051L165.904 67.305C165.904 66.111 165.46 61.876 164.459 61.396C161.22 59.839 161.32 62.741 161.355 67.429V70.025H161.354Z" fill="white"/>
<path d="M134.756 47.839C134.756 47.839 129.742 41.838 122.896 39.474C116.107 37.128 111.039 37.812 111.039 37.812L112.175 61.685L134.756 47.839Z" fill="#231F20"/>
<path d="M0.0601306 48.416C-0.652869 44.775 5.07514 41.839 11.9191 39.475C18.7101 37.129 23.7781 37.813 23.7781 37.813L22.6411 61.686C22.6411 61.686 1.32713 54.844 0.0601306 48.416Z" fill="#231F20"/>
<path d="M4.20917 29.926V228.083H4.21814C4.44014 234.47 32.2981 239.639 66.6422 239.639C100.985 239.639 128.844 234.471 129.065 228.083H129.073V29.926H4.20917Z" fill="#231F20"/>
<path d="M4.20917 40.122V220.961H4.21814C4.44014 226.569 32.2981 231.106 66.6422 231.106C100.985 231.106 128.844 226.569 129.065 220.961H129.073V38.393C129.073 38.393 111.577 49.104 68.5092 49.704C18.0222 50.406 4.20917 40.122 4.20917 40.122Z" fill="#563210"/>
<path d="M10.0151 49.003L10.0261 216.772C10.2331 222.036 36.4392 228.276 68.5092 228.403C102.183 228.277 128.847 220.619 129.065 215.089L129.073 220.961V47.354C129.073 47.354 112.39 57.567 71.3281 58.138C23.1881 58.806 10.0151 49.003 10.0151 49.003Z" fill="#7F5027"/>
<path d="M129.072 29.926C129.072 36.354 101.123 41.561 66.6411 41.561C32.1591 41.561 4.20813 36.354 4.20813 29.926C4.20813 23.508 32.1591 18.297 66.6411 18.297C101.123 18.298 129.072 23.508 129.072 29.926Z" fill="#2D2A2B"/>
<path d="M124.187 29.833C122.604 24.692 97.6711 20.606 67.1411 20.606C35.5901 20.606 10.0151 24.97 10.0151 30.355C10.0151 35.563 33.9621 39.814 64.0961 40.086C96.5361 39.807 122.547 35.37 124.187 29.833Z" fill="#231F20"/>
<path d="M64.8901 25.996C44.4901 26.215 23.7962 31.032 18.4152 35.44C27.2202 37.89 42.1881 39.625 59.6451 40.016C61.9161 40.04 64.1882 40.052 66.4412 40.052C66.6672 40.052 66.8941 40.05 67.1201 40.05C86.7221 39.721 103.69 37.869 113.937 35.197C106.638 30.836 85.6671 26.199 64.8901 25.996Z" fill="#563210"/>
<path d="M134.756 207.622C134.756 207.622 105.045 222.657 66.1082 222.619C27.4362 222.583 0.0601196 209.063 0.0601196 209.063V47.839C0.0601196 47.839 0.0501175 58.561 68.9951 58.561C116.871 58.561 134.756 47.839 134.756 47.839V207.622Z" fill="#231F20"/>
<path d="M115.788 71.851C115.788 73.084 116.871 75.96 112.399 77.184C108.426 78.274 108.58 74.165 108.58 72.929L108.441 67.811C108.441 65.343 109.929 64.566 112.399 64.566C114.87 64.566 115.719 63.343 115.719 69.182L115.788 71.851Z" fill="white"/>
<path d="M129.742 68.606C129.746 70.913 129.668 72.041 127.345 73.219C124.788 74.517 124.947 69.704 124.947 68.462V64.711C124.947 63.611 124.947 61.466 126.968 60.746C128.266 60.282 129.749 59.303 129.709 64.461C129.699 65.5 129.739 67.571 129.742 68.606Z" fill="white"/>
<path d="M96.9711 74.59C96.9711 79.709 96.9711 79.134 92.0071 80.139C87.9661 80.961 88.1862 77.121 88.1862 75.885L88.0471 70.767C88.0471 69.574 88.3911 67.257 92.2141 67.308C97.7101 67.38 97.0041 67.305 96.9711 71.996V74.59Z" fill="white"/>
<path d="M43.7501 75.802C43.7501 80.919 45.0581 81.377 48.7181 81.349C53.7101 81.315 53.0612 78.603 53.0612 77.368V71.996C53.0612 70.8 53.0611 68.519 48.5101 68.519C43.0151 68.519 43.7171 68.519 43.7501 73.208V75.802Z" fill="white"/>
<path d="M24.9322 74C24.9322 79.12 25.9212 79.639 29.5802 79.643C32.0782 79.648 32.2232 77.339 32.2232 76.105L32.1502 70.264C32.1502 69.07 31.6431 66.718 29.6931 66.718C24.1951 66.718 24.8982 66.714 24.9312 71.402L24.9322 74Z" fill="white"/>
<path d="M75.4152 75.889C75.4152 81.008 75.0521 81.396 70.8731 81.377C65.9051 81.359 65.9161 80.253 66.0501 77.111L65.9161 71.991C65.9161 70.799 66.8721 68.605 70.6921 68.602C74.9811 68.602 75.4681 70.843 75.4221 73.437L75.4152 75.889Z" fill="white"/>
<path d="M15.4231 74.937C15.4231 75.625 15.4231 77.473 12.4801 76.754C11.2711 76.46 10.0151 75.602 10.0151 74.916C10.0151 74.916 10.0151 68.644 10.0151 66.553C10.0151 65.884 9.97215 63.631 12.5011 64.282C14.9761 64.914 15.4231 66.01 15.4231 66.719V74.937Z" fill="white"/>
<path d="M4.20715 70.755C4.20715 71.443 4.29414 73.582 3.21814 72.861C2.77614 72.562 2.22815 71.417 2.22815 70.733C2.22815 70.733 2.22815 64.458 2.22815 62.367C2.22815 61.7 2.29013 60.311 3.21613 60.963C4.12113 61.595 4.20715 61.827 4.20715 62.535V70.755Z" fill="white"/>
<path d="M118.387 199.9C118.387 201.134 119.468 204.008 114.997 205.233C111.019 206.322 111.177 202.213 111.177 200.983L111.038 195.859C111.038 193.391 112.526 192.615 114.997 192.615C117.465 192.615 118.314 191.391 118.314 197.229L118.387 199.9Z" fill="white"/>
<path d="M131.472 194.926C131.476 197.232 131.396 198.362 129.076 199.538C126.517 200.835 126.679 196.023 126.679 194.777V191.03C126.679 189.935 126.674 187.785 128.697 187.062C129.999 186.602 131.476 185.621 131.439 190.78C131.43 191.818 131.472 193.889 131.472 194.926Z" fill="white"/>
<path d="M99.5671 202.638C99.5671 207.759 99.5672 207.182 94.6031 208.188C90.5631 209.01 90.7822 205.169 90.7822 203.935L90.6442 198.814C90.6442 197.623 90.9872 195.304 94.8082 195.355C100.303 195.429 99.6011 195.353 99.5671 200.041V202.638Z" fill="white"/>
<path d="M46.3472 203.849C46.3472 208.972 47.6522 209.427 51.3122 209.402C56.3052 209.362 55.6582 206.651 55.6582 205.415V200.041C55.6582 198.848 55.6582 196.567 51.1042 196.567C45.6122 196.567 46.3142 196.567 46.3472 201.255V203.849Z" fill="white"/>
<path d="M27.5281 202.046C27.5281 207.167 28.5171 207.688 32.1771 207.69C34.6711 207.692 34.8162 205.387 34.8162 204.152L34.7481 198.311C34.7481 197.118 34.2392 194.766 32.2852 194.766C26.7912 194.766 27.4951 194.761 27.5281 199.454V202.046Z" fill="white"/>
<path d="M78.0092 203.935C78.0092 209.055 77.6472 209.442 73.4672 209.427C68.5012 209.407 68.5092 208.302 68.6472 205.159L68.5092 200.041C68.5092 198.848 69.4711 196.655 73.2921 196.655C77.5761 196.652 78.0631 198.893 78.0211 201.49L78.0092 203.935Z" fill="white"/>
<path d="M18.0171 202.984C18.0171 203.672 18.0171 205.525 15.0771 204.802C13.8681 204.506 12.6091 203.648 12.6091 202.963C12.6091 202.963 12.6091 196.69 12.6091 194.598C12.6091 193.931 12.5662 191.678 15.0972 192.327C17.5712 192.959 18.0161 194.056 18.0161 194.765V202.984H18.0171Z" fill="white"/>
<path d="M6.80414 198.802C6.80414 199.49 6.89113 201.629 5.81213 200.909C5.37313 200.613 4.82416 199.47 4.82416 198.782C4.82416 198.782 4.82416 192.506 4.82416 190.421C4.82416 189.75 4.88813 188.362 5.81213 189.012C6.72113 189.647 6.80414 189.877 6.80414 190.583V198.802Z" fill="white"/>
<mask id="mask0_1_1284" style="mask-type:luminance" maskUnits="userSpaceOnUse" x="18" y="0" width="96" height="41">
<path d="M96.0831 29.365V0H36.8502V28.976C28.0572 30.78 21.1942 33.163 18.4152 35.439C27.2202 37.889 42.1881 39.624 59.6451 40.015C61.9161 40.039 64.1882 40.051 66.4412 40.051C66.6672 40.051 66.8941 40.049 67.1201 40.049C86.7221 39.72 103.69 37.868 113.937 35.196C110.517 33.153 104.087 31.048 96.0831 29.365Z" fill="white"/>
</mask>
<g mask="url(#mask0_1_1284)">
<path d="M92.4991 8.84998H42.3162V43.326H92.4991V8.84998Z" fill="#2D2A2B"/>
<path d="M50.3101 43.326H92.4991V24.342C92.4991 24.342 77.0361 26.088 71.4001 26.088C64.6671 26.088 50.3091 24.342 50.3091 24.342L50.3101 43.326Z" fill="#231F20"/>
<path d="M92.4991 9.68196C92.4991 14.441 81.2661 18.302 67.4061 18.302C53.5521 18.302 42.3162 14.441 42.3162 9.68196C42.3162 4.92196 53.5511 1.06396 67.4061 1.06396C81.2661 1.06496 92.4991 4.92196 92.4991 9.68196Z" fill="#4C4B4C"/>
<path d="M88.4492 9.76993C88.4492 12.7939 79.1341 15.2489 67.6431 15.2489C56.1541 15.2489 46.8422 12.7939 46.8422 9.76993C46.8422 6.74093 56.1541 4.28894 67.6431 4.28894C79.1341 4.28894 88.4492 6.73993 88.4492 9.76993Z" fill="#231F20"/>
</g>
</svg>
