<svg width="170" height="222" viewBox="0 0 170 222" fill="none" xmlns="http://www.w3.org/2000/svg">
<path d="M132.447 117.23C132.447 117.23 141.676 118.501 148.309 122.191C154.944 125.882 161.288 129.919 162.733 130.788C164.172 131.65 164.748 132.229 166.48 130.788C168.209 129.344 167.633 120.689 167.633 120.689L169.362 63.778C169.362 63.778 169.938 63.858 169.362 61.269C168.787 58.681 169.94 47.373 167.918 42.354C165.902 37.337 160.424 34.455 154.079 32.436C147.735 30.415 131.967 28.23 131.967 28.23L132.447 117.23Z" fill="#1C1819"/>
<path d="M135.972 43.164C135.972 48.284 135.988 48.299 140.954 49.305C144.992 50.127 144.757 45.694 144.757 44.46L144.896 39.341C144.896 38.148 144.896 35.174 140.411 34.454C134.984 33.579 135.939 35.88 135.973 40.57L135.972 43.164Z" fill="white"/>
<path d="M150.681 47.841C150.681 52.959 150.594 52.913 154.51 53.984C155.999 54.388 156.971 52.914 156.971 50.079L156.818 44.604C156.818 43.411 157.056 39.408 154.51 38.937C149.75 38.059 150.649 40.558 150.681 45.246V47.841Z" fill="white"/>
<path d="M161.354 52.025C161.354 57.144 162.058 57.177 164.458 57.966C165.925 58.448 165.757 56.883 165.757 54.051L165.904 49.305C165.904 48.111 165.46 43.876 164.459 43.396C161.22 41.839 161.32 44.741 161.355 49.429V52.025H161.354Z" fill="white"/>
<path d="M134.756 29.839C134.756 29.839 129.742 23.838 122.896 21.474C116.107 19.128 111.039 19.812 111.039 19.812L112.175 43.685L134.756 29.839Z" fill="#231F20"/>
<path d="M0.0601306 30.416C-0.652869 26.775 5.07514 23.839 11.9191 21.475C18.7101 19.129 23.7781 19.813 23.7781 19.813L22.6411 43.686C22.6411 43.686 1.32713 36.844 0.0601306 30.416Z" fill="#231F20"/>
<path d="M4.20917 11.926V210.083H4.21814C4.44014 216.47 32.2981 221.639 66.6422 221.639C100.985 221.639 128.844 216.471 129.065 210.083H129.073V11.926H4.20917Z" fill="#231F20"/>
<path d="M4.20917 22.122V202.961H4.21814C4.44014 208.569 32.2981 213.106 66.6422 213.106C100.985 213.106 128.844 208.569 129.065 202.961H129.073V20.393C129.073 20.393 111.577 31.104 68.5092 31.704C18.0222 32.406 4.20917 22.122 4.20917 22.122Z" fill="#563210"/>
<path d="M10.0151 31.003L10.0261 198.772C10.2331 204.036 36.4392 210.276 68.5092 210.403C102.183 210.277 128.847 202.619 129.065 197.089L129.073 202.961V29.354C129.073 29.354 112.39 39.567 71.3281 40.138C23.1881 40.806 10.0151 31.003 10.0151 31.003Z" fill="#7F5027"/>
<path d="M129.072 11.926C129.072 18.354 101.123 23.561 66.6411 23.561C32.1591 23.561 4.20813 18.354 4.20813 11.926C4.20813 5.50799 32.1591 0.296997 66.6411 0.296997C101.123 0.297997 129.072 5.50799 129.072 11.926Z" fill="#2D2A2B"/>
<path d="M124.187 11.833C122.604 6.69201 97.6711 2.60602 67.1411 2.60602C35.5901 2.60602 10.0151 6.97001 10.0151 12.355C10.0151 17.563 33.9621 21.814 64.0961 22.086C96.5361 21.807 122.547 17.37 124.187 11.833Z" fill="#231F20"/>
<path d="M64.8901 7.99597C44.4901 8.21497 23.7962 13.032 18.4152 17.44C27.2202 19.89 42.1881 21.625 59.6451 22.016C61.9161 22.04 64.1882 22.052 66.4412 22.052C66.6672 22.052 66.8941 22.05 67.1201 22.05C86.7221 21.721 103.69 19.869 113.937 17.197C106.638 12.836 85.6671 8.19897 64.8901 7.99597Z" fill="#563210"/>
<path d="M134.756 189.622C134.756 189.622 105.045 204.657 66.1082 204.619C27.4362 204.583 0.0601196 191.063 0.0601196 191.063V29.839C0.0601196 29.839 0.0501175 40.561 68.9951 40.561C116.871 40.561 134.756 29.839 134.756 29.839V189.622Z" fill="#231F20"/>
<path d="M115.788 53.851C115.788 55.084 116.871 57.96 112.399 59.184C108.426 60.274 108.58 56.165 108.58 54.929L108.441 49.811C108.441 47.343 109.929 46.566 112.399 46.566C114.87 46.566 115.719 45.343 115.719 51.182L115.788 53.851Z" fill="white"/>
<path d="M129.742 50.606C129.746 52.913 129.668 54.041 127.345 55.219C124.788 56.517 124.947 51.704 124.947 50.462V46.711C124.947 45.611 124.947 43.466 126.968 42.746C128.266 42.282 129.749 41.303 129.709 46.461C129.699 47.5 129.739 49.571 129.742 50.606Z" fill="white"/>
<path d="M96.9711 56.59C96.9711 61.709 96.9711 61.134 92.0071 62.139C87.9661 62.961 88.1862 59.121 88.1862 57.885L88.0471 52.767C88.0471 51.574 88.3911 49.257 92.2141 49.308C97.7101 49.38 97.0041 49.305 96.9711 53.996V56.59Z" fill="white"/>
<path d="M43.7501 57.802C43.7501 62.919 45.0581 63.377 48.7181 63.349C53.7101 63.315 53.0612 60.603 53.0612 59.368V53.996C53.0612 52.8 53.0611 50.519 48.5101 50.519C43.0151 50.519 43.7171 50.519 43.7501 55.208V57.802Z" fill="white"/>
<path d="M24.9322 56C24.9322 61.12 25.9212 61.639 29.5802 61.643C32.0782 61.648 32.2232 59.339 32.2232 58.105L32.1502 52.264C32.1502 51.07 31.6431 48.718 29.6931 48.718C24.1951 48.718 24.8982 48.714 24.9312 53.402L24.9322 56Z" fill="white"/>
<path d="M75.4152 57.889C75.4152 63.008 75.0521 63.396 70.8731 63.377C65.9051 63.359 65.9161 62.253 66.0501 59.111L65.9161 53.991C65.9161 52.799 66.8721 50.605 70.6921 50.602C74.9811 50.602 75.4681 52.843 75.4221 55.437L75.4152 57.889Z" fill="white"/>
<path d="M15.4231 56.937C15.4231 57.625 15.4231 59.473 12.4801 58.754C11.2711 58.46 10.0151 57.602 10.0151 56.916C10.0151 56.916 10.0151 50.644 10.0151 48.553C10.0151 47.884 9.97215 45.631 12.5011 46.282C14.9761 46.914 15.4231 48.01 15.4231 48.719V56.937Z" fill="white"/>
<path d="M4.20715 52.755C4.20715 53.443 4.29414 55.582 3.21814 54.861C2.77614 54.562 2.22815 53.417 2.22815 52.733C2.22815 52.733 2.22815 46.458 2.22815 44.367C2.22815 43.7 2.29013 42.311 3.21613 42.963C4.12113 43.595 4.20715 43.827 4.20715 44.535V52.755Z" fill="white"/>
<path d="M118.387 181.9C118.387 183.134 119.468 186.008 114.997 187.233C111.019 188.322 111.177 184.213 111.177 182.983L111.038 177.859C111.038 175.391 112.526 174.615 114.997 174.615C117.465 174.615 118.314 173.391 118.314 179.229L118.387 181.9Z" fill="white"/>
<path d="M131.472 176.926C131.476 179.232 131.396 180.362 129.076 181.538C126.517 182.835 126.679 178.023 126.679 176.777V173.03C126.679 171.935 126.674 169.785 128.697 169.062C129.999 168.602 131.476 167.621 131.439 172.78C131.43 173.818 131.472 175.889 131.472 176.926Z" fill="white"/>
<path d="M99.5671 184.638C99.5671 189.759 99.5672 189.182 94.6031 190.188C90.5631 191.01 90.7822 187.169 90.7822 185.935L90.6442 180.814C90.6442 179.623 90.9872 177.304 94.8082 177.355C100.303 177.429 99.6011 177.353 99.5671 182.041V184.638Z" fill="white"/>
<path d="M46.3472 185.849C46.3472 190.972 47.6522 191.427 51.3122 191.402C56.3052 191.362 55.6582 188.651 55.6582 187.415V182.041C55.6582 180.848 55.6582 178.567 51.1042 178.567C45.6122 178.567 46.3142 178.567 46.3472 183.255V185.849Z" fill="white"/>
<path d="M27.5281 184.046C27.5281 189.167 28.5171 189.688 32.1771 189.69C34.6711 189.692 34.8162 187.387 34.8162 186.152L34.7481 180.311C34.7481 179.118 34.2392 176.766 32.2852 176.766C26.7912 176.766 27.4951 176.761 27.5281 181.454V184.046Z" fill="white"/>
<path d="M78.0092 185.935C78.0092 191.055 77.6472 191.442 73.4672 191.427C68.5012 191.407 68.5092 190.302 68.6472 187.159L68.5092 182.041C68.5092 180.848 69.4711 178.655 73.2921 178.655C77.5761 178.652 78.0631 180.893 78.0211 183.49L78.0092 185.935Z" fill="white"/>
<path d="M18.0171 184.984C18.0171 185.672 18.0171 187.525 15.0771 186.802C13.8681 186.506 12.6091 185.648 12.6091 184.963C12.6091 184.963 12.6091 178.69 12.6091 176.598C12.6091 175.931 12.5662 173.678 15.0972 174.327C17.5712 174.959 18.0161 176.056 18.0161 176.765V184.984H18.0171Z" fill="white"/>
<path d="M6.80414 180.802C6.80414 181.49 6.89113 183.629 5.81213 182.909C5.37313 182.613 4.82416 181.47 4.82416 180.782C4.82416 180.782 4.82416 174.506 4.82416 172.421C4.82416 171.75 4.88813 170.362 5.81213 171.012C6.72113 171.647 6.80414 171.877 6.80414 172.583V180.802Z" fill="white"/>
<mask id="mask0_1_1284" style="mask-type:luminance" maskUnits="userSpaceOnUse" x="18" y="0" width="96" height="23">
<path d="M96.0831 16.1676V0H36.8502V15.9534C28.0572 16.9466 21.1942 18.2586 18.4152 19.5118C27.2202 20.8607 42.1881 21.8159 59.6451 22.0312C61.9161 22.0444 64.1882 22.051 66.4412 22.051C66.6672 22.051 66.8941 22.0499 67.1201 22.0499C86.7221 21.8688 103.69 20.8491 113.937 19.378C110.517 18.2531 104.087 17.0942 96.0831 16.1676Z" fill="white"/>
</mask>
<g mask="url(#mask0_1_1284)">
<path d="M92.4991 4.87256H42.3162V23.8541H92.4991V4.87256Z" fill="#2D2A2B"/>
<path d="M92.4991 5.33059C92.4991 7.95077 81.2661 10.0765 67.4061 10.0765C53.5521 10.0765 42.3162 7.95077 42.3162 5.33059C42.3162 2.70986 53.5511 0.585754 67.4061 0.585754C81.2661 0.586305 92.4991 2.70986 92.4991 5.33059Z" fill="#4C4B4C"/>
<path d="M88.4492 5.37901C88.4492 7.04394 79.1341 8.3956 67.6431 8.3956C56.1541 8.3956 46.8422 7.04394 46.8422 5.37901C46.8422 3.71133 56.1541 2.36133 67.6431 2.36133C79.1341 2.36133 88.4492 3.71078 88.4492 5.37901Z" fill="#231F20"/>
</g>
</svg>
