<svg width="808" height="1400" viewBox="0 0 808 1400" fill="none" xmlns="http://www.w3.org/2000/svg">
<path fill-rule="evenodd" clip-rule="evenodd" d="M30.3441 978.857L37.0868 304.483C37.0868 304.483 25.2703 157.792 178.718 81.9228C332.131 6.05705 671.004 1 671.004 1V199.941C671.004 199.941 455.203 233.658 421.489 314.597C387.776 395.51 354.029 722.566 354.029 722.566L30.3441 978.857Z" fill="url(#paint0_linear_8_3)" stroke="#3D3D3D" stroke-linecap="round" stroke-linejoin="round"/>
<path fill-rule="evenodd" clip-rule="evenodd" d="M797.28 475.455L806.827 1131.54C808.028 1272.23 618.464 1390.56 430.101 1398.91C241.739 1407.25 69.699 1304.44 39.0896 1205.81C23.9018 1156.91 0.936462 1125.29 0.936462 1046.05L4.60824 273.507L134.456 566.048L582.714 561.308L797.28 475.455Z" fill="url(#paint1_linear_8_3)" stroke="url(#paint2_linear_8_3)"/>
<path d="M566.458 778.21L633.919 752.942L630.547 1331.21L566.458 1358.19V778.21Z" fill="#544B00"/>
<path fill-rule="evenodd" clip-rule="evenodd" d="M633.919 752.073L628.845 1329.51C709.791 1292.43 775.516 1228.37 790.704 1154.17L783.961 629.87C758.659 678.738 716.534 708.246 633.919 752.073Z" fill="url(#paint3_linear_8_3)"/>
<path opacity="0.46203" d="M136.054 177.795L120.158 193.889C114.306 199.814 109.561 213.865 109.561 225.271V266.577C109.561 277.983 114.306 282.426 120.158 276.501L136.054 260.407C141.906 254.482 146.651 240.432 146.651 229.025V187.719C146.651 176.313 141.906 171.87 136.054 177.795Z" fill="#E7E7E7"/>
<path opacity="0.49367" d="M770.476 500.056L779.355 1118.58C780.456 1249.67 603.844 1359.95 428.332 1367.73C252.821 1375.51 92.4974 1279.71 63.9576 1187.78C49.8045 1142.22 28.4081 1105.6 28.4081 1031.76L31.8128 311.86L152.815 584.507L570.497 580.067L770.476 500.056Z" stroke="white"/>
<path d="M422.958 318.536C279.191 318.536 158.623 369.307 94.3667 440.573L17.8601 374.281C17.8601 374.281 5.04222 527.027 25.2704 580.067C65.7268 718.193 213.7 796.703 422.958 796.703C632.217 796.703 790.203 693.893 790.203 626.566C790.203 563.377 787.266 535.238 787.266 535.238C787.266 535.238 527.604 318.536 422.958 318.536Z" fill="url(#paint4_linear_8_3)"/>
<path opacity="0.42405" fill-rule="evenodd" clip-rule="evenodd" d="M651.777 15.9109C651.777 15.9109 345.484 20.3638 192.07 96.2329C38.6558 172.099 50.2052 319.471 50.2052 319.471L53.3429 324.678C53.3429 324.678 41.7935 177.316 195.207 101.447C347.353 26.2086 646.236 21.215 651.777 21.1282V15.9109Z" fill="url(#paint5_linear_8_3)"/>
<path d="M422.958 234.032C279.191 234.032 158.623 284.822 94.3667 356.088L54.144 265.162L7.64584 270.102C7.64584 270.102 45.4986 462.737 45.4986 463.505C81.7491 602.499 213.7 691.957 422.958 691.957C632.217 691.957 801.619 589.881 801.619 463.505C801.619 337.162 632.217 234.032 422.958 234.032Z" fill="#3F3F3F" stroke="url(#paint6_linear_8_3)"/>
<path d="M753.538 458.344C753.813 485.381 745.568 512.186 729.276 537.214C712.985 562.243 688.968 585.003 658.61 604.182C628.251 623.362 592.15 638.583 552.383 648.97C512.617 659.356 469.971 664.704 426.899 664.704C383.828 664.704 341.182 659.356 301.415 648.97C261.649 638.583 225.548 623.362 195.189 604.182C164.83 585.003 140.814 562.243 124.522 537.214C108.231 512.186 99.9852 485.381 100.261 458.344C99.9852 431.307 108.231 404.502 124.522 379.473C140.814 354.445 164.83 331.685 195.189 312.506C225.548 293.326 261.649 278.105 301.415 267.718C341.182 257.331 383.828 251.984 426.899 251.984C469.971 251.984 512.617 257.331 552.383 267.718C592.15 278.105 628.251 293.326 658.61 312.506C688.968 331.685 712.985 354.445 729.276 379.473C745.568 404.502 753.813 431.307 753.538 458.344Z" fill="url(#paint7_radial_8_3)"/>
<path d="M420.788 263.359C326.023 263.359 248.682 319.971 248.682 389.468V444.578C248.682 514.109 326.023 570.688 420.788 570.688C515.554 570.688 591.86 514.109 591.86 444.578V389.468C591.86 319.971 515.554 263.359 420.788 263.359Z" fill="url(#paint8_linear_8_3)"/>
<path d="M592.244 368.923C592.244 397.379 574.157 424.67 541.962 444.792C509.767 464.914 466.102 476.218 420.571 476.218C375.041 476.218 331.375 464.914 299.181 444.792C266.986 424.67 248.899 397.379 248.899 368.923C248.899 340.467 266.986 313.176 299.181 293.054C331.375 272.932 375.041 261.628 420.571 261.628C466.102 261.628 509.767 272.932 541.962 293.054C574.157 313.176 592.244 340.467 592.244 368.923Z" fill="url(#paint9_linear_8_3)"/>
<path opacity="0.31646" fill-rule="evenodd" clip-rule="evenodd" d="M9.68201 270.97L59.0174 265.896L99.4738 363.465C99.4738 363.465 182.256 283.621 322.017 258.953C465.317 233.658 586.72 272.439 586.72 272.439C586.72 272.439 416.416 247.137 303.458 274.108C188.899 301.479 153.215 329.952 87.4571 385.596L44.6641 288.027L9.68201 270.97Z" fill="white"/>
<path d="M587.238 368.921C587.238 396.547 569.678 423.042 538.422 442.577C507.166 462.112 464.774 473.087 420.571 473.087C376.368 473.087 333.976 462.112 302.72 442.577C271.464 423.042 253.904 396.547 253.904 368.921C253.904 341.294 271.464 314.799 302.72 295.264C333.976 275.729 376.368 264.754 420.571 264.754C464.774 264.754 507.166 275.729 538.422 295.264C569.678 314.799 587.238 341.294 587.238 368.921Z" stroke="url(#paint10_linear_8_3)" stroke-width="0.500002"/>
<path d="M426.864 948.982C426.864 942.005 424.961 936.664 421.156 932.926C417.35 929.187 411.909 927.318 404.799 927.318C397.723 927.318 392.282 929.187 388.51 932.926C384.738 936.664 382.869 942.005 382.869 948.982C382.869 955.858 384.738 961.165 388.51 964.837C392.282 968.509 397.723 970.345 404.799 970.345C411.976 970.345 417.417 968.509 421.189 964.837C424.961 961.165 426.864 955.858 426.864 948.982ZM439.147 921.81C441.784 913.032 445.823 906.422 451.298 901.983C456.805 897.543 463.615 895.307 471.826 895.307C483.976 895.307 493.256 899.846 499.665 908.959C506.041 918.039 509.212 931.39 509.212 948.982C509.212 966.439 506.041 979.725 499.698 988.804C493.356 997.883 484.043 1002.42 471.826 1002.42C463.615 1002.42 456.805 1000.19 451.298 995.713C445.823 991.241 441.784 984.631 439.147 975.852C436.41 985.633 432.037 993.043 425.929 998.05C419.854 1003.02 412.176 1005.53 402.863 1005.53C388.577 1005.53 377.762 1000.79 370.452 991.274C363.141 981.761 359.47 967.674 359.47 948.982C359.47 930.222 363.141 916.069 370.452 906.489C377.762 896.909 388.577 892.136 402.863 892.136C412.176 892.136 419.854 894.639 425.929 899.613C432.037 904.62 436.41 911.997 439.147 921.81ZM468.054 930.523C462.313 930.523 457.873 932.091 454.802 935.296C451.698 938.5 450.163 943.04 450.163 948.982C450.163 954.79 451.698 959.263 454.802 962.4C457.873 965.571 462.313 967.14 468.054 967.14C473.762 967.14 478.168 965.571 481.239 962.4C484.31 959.263 485.812 954.79 485.812 948.982C485.812 943.04 484.277 938.5 481.173 935.296C478.102 932.091 473.695 930.523 468.054 930.523ZM434.574 1108.77C452.633 1108.77 465.351 1107.1 472.727 1103.7C480.104 1100.33 483.81 1094.62 483.81 1086.64C483.81 1078.66 480.104 1072.95 472.727 1069.52C465.351 1066.11 452.633 1064.41 434.574 1064.41C416.349 1064.41 403.498 1066.11 396.021 1069.52C388.543 1072.95 384.805 1078.66 384.805 1086.64C384.805 1094.58 388.543 1100.23 396.021 1103.66C403.498 1107.07 416.349 1108.77 434.574 1108.77ZM434.307 1145.99C410.374 1145.99 391.948 1140.85 378.963 1130.53C365.979 1120.22 359.47 1105.6 359.47 1086.64C359.47 1067.61 365.979 1052.96 378.963 1042.65C391.948 1032.33 410.374 1027.19 434.307 1027.19C458.274 1027.19 476.766 1032.33 489.751 1042.65C502.736 1052.96 509.212 1067.61 509.212 1086.64C509.212 1105.6 502.736 1120.22 489.751 1130.53C476.766 1140.85 458.274 1145.99 434.307 1145.99ZM434.574 1246.46C452.633 1246.46 465.351 1244.76 472.727 1241.39C480.104 1237.98 483.81 1232.31 483.81 1224.3C483.81 1216.32 480.104 1210.61 472.727 1207.21C465.351 1203.77 452.633 1202.07 434.574 1202.07C416.349 1202.07 403.498 1203.77 396.021 1207.21C388.543 1210.61 384.805 1216.32 384.805 1224.3C384.805 1232.24 388.543 1237.92 396.021 1241.32C403.498 1244.73 416.349 1246.46 434.574 1246.46ZM434.307 1283.68C410.374 1283.68 391.948 1278.51 378.963 1268.19C365.979 1257.88 359.47 1243.26 359.47 1224.3C359.47 1205.31 365.979 1190.62 378.963 1180.34C391.948 1170.02 410.374 1164.85 434.307 1164.85C458.274 1164.85 476.766 1170.02 489.751 1180.34C502.736 1190.62 509.212 1205.31 509.212 1224.3C509.212 1243.26 502.736 1257.88 489.751 1268.19C476.766 1278.51 458.274 1283.68 434.307 1283.68Z" fill="black"/>
<path d="M601.877 41.8845L571.529 44.4134C560.355 45.3446 551.297 55.3459 551.297 66.7522V108.058C551.297 119.465 560.355 127.956 571.529 127.025L601.877 124.496C613.05 123.565 622.108 113.564 622.108 102.158V60.8513C622.108 49.4451 613.05 40.9534 601.877 41.8845Z" fill="#E7E7E7"/>
<path d="M477.13 58.2193L446.783 61.7957C435.61 63.1125 426.552 73.4265 426.552 84.8327V126.139C426.552 137.545 435.61 145.724 446.783 144.407L477.13 140.831C488.303 139.514 497.361 129.2 497.361 117.794V76.4878C497.361 65.0816 488.303 56.9025 477.13 58.2193Z" fill="#E7E7E7"/>
<path opacity="0.78481" d="M344.66 81.3745L317.927 85.8449C308.084 87.4909 300.105 98.0718 300.105 109.478V150.784C300.105 162.19 308.084 170.103 317.927 168.457L344.66 163.986C354.504 162.34 362.483 151.759 362.483 140.353V99.047C362.483 87.6408 354.504 79.7285 344.66 81.3745Z" fill="#E7E7E7"/>
<path opacity="0.55316" d="M233.13 115.757L208.564 126.487C199.519 130.437 192.186 142.886 192.186 154.293V195.599C192.186 207.005 199.519 213.049 208.564 209.099L233.13 198.369C242.176 194.419 249.508 181.97 249.508 170.564V129.257C249.508 117.851 242.176 111.807 233.13 115.757Z" fill="#E7E7E7"/>
<path opacity="0.75949" fill-rule="evenodd" clip-rule="evenodd" d="M275.653 862.528V906.756C201.883 892.002 101.577 841.866 57.315 776.942V726.805C101.577 797.604 181.221 841.866 275.653 862.528Z" fill="#222222"/>
<path opacity="0.37342" fill-rule="evenodd" clip-rule="evenodd" d="M275.653 1211.28V1255.54C136.993 1196.53 92.731 1152.27 57.315 1078.53V1028.36C110.422 1122.76 184.192 1172.93 275.653 1211.28Z" fill="#222222"/>
<path opacity="0.37342" fill-rule="evenodd" clip-rule="evenodd" d="M275.653 1116.65V1160.91C136.993 1101.89 92.731 1057.67 57.315 983.897V933.727C110.422 1028.16 184.192 1078.3 275.653 1116.65Z" fill="#222222"/>
<defs>
<linearGradient id="paint0_linear_8_3" x1="13.6542" y1="489.908" x2="687.694" y2="489.908" gradientUnits="userSpaceOnUse">
<stop stop-color="#3C3C3C"/>
<stop offset="1" stop-color="#585858"/>
</linearGradient>
<linearGradient id="paint1_linear_8_3" x1="-15.7535" y1="836.458" x2="823.517" y2="836.458" gradientUnits="userSpaceOnUse">
<stop stop-color="#FFF7B1"/>
<stop offset="0.5" stop-color="#ECD300"/>
<stop offset="1" stop-color="#B5A200"/>
</linearGradient>
<linearGradient id="paint2_linear_8_3" x1="403.898" y1="614.682" x2="403.898" y2="791.696" gradientUnits="userSpaceOnUse">
<stop stop-color="#2A2500"/>
<stop offset="1" stop-color="#6E6200"/>
</linearGradient>
<linearGradient id="paint3_linear_8_3" x1="628.845" y1="957.76" x2="789.002" y2="957.76" gradientUnits="userSpaceOnUse">
<stop stop-color="#E7E7E7"/>
<stop offset="1" stop-color="#A0A0A0"/>
</linearGradient>
<linearGradient id="paint4_linear_8_3" x1="13.8545" y1="557.603" x2="790.203" y2="557.603" gradientUnits="userSpaceOnUse">
<stop stop-color="#393939"/>
<stop offset="0.15888" stop-color="#747474"/>
<stop offset="1"/>
</linearGradient>
<linearGradient id="paint5_linear_8_3" x1="50.0049" y1="170.293" x2="651.777" y2="170.293" gradientUnits="userSpaceOnUse">
<stop stop-color="white"/>
<stop offset="1" stop-color="white" stop-opacity="0"/>
</linearGradient>
<linearGradient id="paint6_linear_8_3" x1="404.633" y1="510.203" x2="404.633" y2="708.647" gradientUnits="userSpaceOnUse">
<stop stop-color="#222222"/>
<stop offset="1" stop-color="#AFAFAF"/>
</linearGradient>
<radialGradient id="paint7_radial_8_3" cx="0" cy="0" r="1" gradientUnits="userSpaceOnUse" gradientTransform="translate(426.916 458.343) scale(326.645 205.047)">
<stop stop-opacity="0"/>
<stop offset="0.7757" stop-color="#4D4D4D" stop-opacity="0.88166"/>
<stop offset="1" stop-color="#595959" stop-opacity="0"/>
</radialGradient>
<linearGradient id="paint8_linear_8_3" x1="679.649" y1="387.758" x2="231.978" y2="383.692" gradientUnits="userSpaceOnUse">
<stop/>
<stop offset="0.5" stop-color="#424242"/>
<stop offset="1" stop-color="#7C7C7C"/>
</linearGradient>
<linearGradient id="paint9_linear_8_3" x1="232.209" y1="368.923" x2="585.101" y2="368.923" gradientUnits="userSpaceOnUse">
<stop/>
<stop offset="0.5" stop-color="#424242"/>
<stop offset="1" stop-color="#7C7C7C"/>
</linearGradient>
<linearGradient id="paint10_linear_8_3" x1="237.701" y1="368.921" x2="603.441" y2="368.921" gradientUnits="userSpaceOnUse">
<stop stop-color="#B6B6B6"/>
<stop offset="1" stop-color="#6A6A6A"/>
</linearGradient>
</defs>
</svg>
