<svg width="26" height="44" viewBox="0 0 26 44" fill="none" xmlns="http://www.w3.org/2000/svg">
<path fill-rule="evenodd" clip-rule="evenodd" d="M1.8811 30.2948L2.0831 10.0918C2.0831 10.0918 1.7291 5.6972 6.3261 3.4243C10.9221 1.1515 21.0741 1 21.0741 1V6.9599C21.0741 6.9599 14.6091 7.97 13.5991 10.3948C12.5891 12.8188 11.5781 22.6168 11.5781 22.6168L1.8811 30.2948Z" fill="url(#paint0_linear_8_79)" stroke="#3D3D3D" stroke-linecap="round" stroke-linejoin="round"/>
<path fill-rule="evenodd" clip-rule="evenodd" d="M24.857 15.2138L25.143 34.8688C25.179 39.0838 19.5 42.6288 13.857 42.8788C8.214 43.1288 3.06 40.0488 2.143 37.0938C1.688 35.6288 1 34.6818 1 32.3078L1.11 9.16382L5 17.9278L18.429 17.7858L24.857 15.2138Z" fill="url(#paint1_linear_8_79)" stroke="url(#paint2_linear_8_79)"/>
<path d="M17.9419 24.2839L19.9629 23.5269L19.8619 40.8509L17.9419 41.6589V24.2839Z" fill="#544B00"/>
<path fill-rule="evenodd" clip-rule="evenodd" d="M19.963 23.5008L19.811 40.7998C22.236 39.6888 24.205 37.7698 24.66 35.5468L24.458 19.8398C23.7 21.3038 22.438 22.1878 19.963 23.5008Z" fill="url(#paint3_linear_8_79)"/>
<path opacity="0.46203" d="M5.04782 6.29654L4.57162 6.77868C4.39629 6.95619 4.25415 7.37711 4.25415 7.71882V8.95628C4.25415 9.29799 4.39629 9.43109 4.57162 9.25358L5.04782 8.77144C5.22316 8.59393 5.36529 8.17301 5.36529 7.8313V6.59384C5.36529 6.25213 5.22316 6.11903 5.04782 6.29654Z" fill="#E7E7E7"/>
<path opacity="0.49367" d="M24.054 15.9507L24.32 34.4807C24.353 38.4077 19.062 41.7117 13.804 41.9447C8.546 42.1777 3.743 39.3077 2.888 36.5537C2.464 35.1887 1.823 34.0917 1.823 31.8797L1.925 10.3127L5.55 18.4807L18.063 18.3477L24.054 15.9507Z" stroke="white"/>
<path d="M13.6429 10.5127C9.33594 10.5127 5.72393 12.0337 3.79893 14.1687L1.50693 12.1827C1.50693 12.1827 1.12294 16.7587 1.72894 18.3477C2.94094 22.4857 7.37394 24.8377 13.6429 24.8377C19.9119 24.8377 24.6449 21.7577 24.6449 19.7407C24.6449 17.8477 24.5569 17.0047 24.5569 17.0047C24.5569 17.0047 16.7779 10.5127 13.6429 10.5127Z" fill="url(#paint4_linear_8_79)"/>
<path opacity="0.42405" fill-rule="evenodd" clip-rule="evenodd" d="M20.4979 1.44678C20.4979 1.44678 11.3219 1.58018 6.7259 3.85308C2.1299 6.12588 2.4759 10.5409 2.4759 10.5409L2.5699 10.6969C2.5699 10.6969 2.2239 6.28218 6.8199 4.00928C11.3779 1.75528 20.3319 1.60568 20.4979 1.60308V1.44678Z" fill="url(#paint5_linear_8_79)"/>
<path d="M13.6429 7.9812C9.33593 7.9812 5.72393 9.5028 3.79893 11.6378L2.59393 8.9138L1.20093 9.0618C1.20093 9.0618 2.33493 14.8328 2.33493 14.8558C3.42093 19.0198 7.37393 21.6998 13.6429 21.6998C19.9119 21.6998 24.9869 18.6418 24.9869 14.8558C24.9869 11.0708 19.9119 7.9812 13.6429 7.9812Z" fill="#3F3F3F" stroke="url(#paint6_linear_8_79)"/>
<path d="M23.5465 14.7012C23.5548 15.5112 23.3078 16.3142 22.8197 17.064C22.3316 17.8138 21.6121 18.4957 20.7027 19.0703C19.7932 19.6448 18.7116 20.1008 17.5203 20.412C16.329 20.7232 15.0514 20.8834 13.761 20.8834C12.4707 20.8834 11.1931 20.7232 10.0018 20.412C8.81044 20.1008 7.72891 19.6448 6.81942 19.0703C5.90994 18.4957 5.19045 17.8138 4.70238 17.064C4.21431 16.3142 3.96729 15.5112 3.97554 14.7012C3.96729 13.8912 4.21431 13.0882 4.70238 12.3384C5.19045 11.5886 5.90994 10.9067 6.81942 10.3322C7.72891 9.75758 8.81044 9.30158 10.0018 8.99041C11.1931 8.67924 12.4707 8.51904 13.761 8.51904C15.0514 8.51904 16.329 8.67924 17.5203 8.99041C18.7116 9.30158 19.7932 9.75758 20.7027 10.3322C21.6121 10.9067 22.3316 11.5886 22.8197 12.3384C23.3078 13.0882 23.5548 13.8912 23.5465 14.7012Z" fill="url(#paint7_radial_8_79)"/>
<path d="M13.5781 8.85986C10.7391 8.85986 8.42212 10.5559 8.42212 12.6379V14.2889C8.42212 16.3719 10.7391 18.0669 13.5781 18.0669C16.4171 18.0669 18.7031 16.3719 18.7031 14.2889V12.6379C18.7031 10.5559 16.4171 8.85986 13.5781 8.85986Z" fill="url(#paint8_linear_8_79)"/>
<path d="M18.7145 12.0222C18.7145 12.8747 18.1726 13.6923 17.2081 14.2951C16.2436 14.8979 14.9355 15.2366 13.5715 15.2366C12.2075 15.2366 10.8993 14.8979 9.93482 14.2951C8.97032 13.6923 8.42847 12.8747 8.42847 12.0222C8.42847 11.1697 8.97032 10.3521 9.93482 9.74933C10.8993 9.14652 12.2075 8.80786 13.5715 8.80786C14.9355 8.80786 16.2436 9.14652 17.2081 9.74933C18.1726 10.3521 18.7145 11.1697 18.7145 12.0222Z" fill="url(#paint9_linear_8_79)"/>
<path opacity="0.31646" fill-rule="evenodd" clip-rule="evenodd" d="M1.26196 9.08782L2.73996 8.93582L3.95196 11.8588C3.95196 11.8588 6.43196 9.46682 10.619 8.72782C14.912 7.97002 18.549 9.13182 18.549 9.13182C18.549 9.13182 13.447 8.37382 10.063 9.18182C6.63096 10.0018 5.56196 10.8548 3.59196 12.5218L2.30996 9.59882L1.26196 9.08782Z" fill="white"/>
<path d="M18.5644 12.0222C18.5644 12.8499 18.0384 13.6436 17.102 14.2289C16.1656 14.8141 14.8956 15.1429 13.5714 15.1429C12.2472 15.1429 10.9772 14.8141 10.0408 14.2289C9.10442 13.6436 8.57837 12.8499 8.57837 12.0222C8.57837 11.1946 9.10442 10.4009 10.0408 9.81562C10.9772 9.23039 12.2472 8.90161 13.5714 8.90161C14.8956 8.90161 16.1656 9.23039 17.102 9.81562C18.0384 10.4009 18.5644 11.1946 18.5644 12.0222Z" stroke="url(#paint10_linear_8_79)" stroke-width="0.500002"/>
<path d="M13.76 29.3998C13.76 29.1908 13.7031 29.0308 13.5891 28.9188C13.4751 28.8068 13.3121 28.7508 13.0991 28.7508C12.8871 28.7508 12.724 28.8068 12.611 28.9188C12.498 29.0308 12.4421 29.1908 12.4421 29.3998C12.4421 29.6058 12.498 29.7648 12.611 29.8748C12.724 29.9848 12.8871 30.0398 13.0991 30.0398C13.3141 30.0398 13.477 29.9848 13.59 29.8748C13.703 29.7648 13.76 29.6058 13.76 29.3998ZM14.128 28.5858C14.207 28.3228 14.3281 28.1248 14.4921 27.9918C14.6571 27.8588 14.861 27.7918 15.107 27.7918C15.471 27.7918 15.749 27.9278 15.941 28.2008C16.132 28.4728 16.2271 28.8728 16.2271 29.3998C16.2271 29.9228 16.1321 30.3208 15.9421 30.5928C15.7521 30.8648 15.473 31.0008 15.107 31.0008C14.861 31.0008 14.6571 30.9338 14.4921 30.7998C14.3281 30.6658 14.207 30.4678 14.128 30.2048C14.046 30.4978 13.915 30.7198 13.732 30.8698C13.55 31.0188 13.32 31.0938 13.041 31.0938C12.613 31.0938 12.2891 30.9518 12.0701 30.6668C11.8511 30.3818 11.7411 29.9598 11.7411 29.3998C11.7411 28.8378 11.8511 28.4138 12.0701 28.1268C12.2891 27.8398 12.613 27.6968 13.041 27.6968C13.32 27.6968 13.55 27.7718 13.732 27.9208C13.915 28.0708 14.046 28.2918 14.128 28.5858ZM14.9941 28.8468C14.8221 28.8468 14.689 28.8938 14.597 28.9898C14.504 29.0858 14.458 29.2218 14.458 29.3998C14.458 29.5738 14.504 29.7078 14.597 29.8018C14.689 29.8968 14.8221 29.9438 14.9941 29.9438C15.1651 29.9438 15.297 29.8968 15.389 29.8018C15.481 29.7078 15.5261 29.5738 15.5261 29.3998C15.5261 29.2218 15.4801 29.0858 15.3871 28.9898C15.2951 28.8938 15.1631 28.8468 14.9941 28.8468ZM13.9911 34.1868C14.5321 34.1868 14.9131 34.1368 15.1341 34.0348C15.3551 33.9338 15.4661 33.7628 15.4661 33.5238C15.4661 33.2848 15.3551 33.1138 15.1341 33.0108C14.9131 32.9088 14.5321 32.8578 13.9911 32.8578C13.4451 32.8578 13.0601 32.9088 12.8361 33.0108C12.6121 33.1138 12.5 33.2848 12.5 33.5238C12.5 33.7618 12.6121 33.9308 12.8361 34.0338C13.0601 34.1358 13.4451 34.1868 13.9911 34.1868ZM13.9831 35.3018C13.2661 35.3018 12.7141 35.1478 12.3251 34.8388C11.9361 34.5298 11.7411 34.0918 11.7411 33.5238C11.7411 32.9538 11.9361 32.5148 12.3251 32.2058C12.7141 31.8968 13.2661 31.7428 13.9831 31.7428C14.7011 31.7428 15.2551 31.8968 15.6441 32.2058C16.0331 32.5148 16.2271 32.9538 16.2271 33.5238C16.2271 34.0918 16.0331 34.5298 15.6441 34.8388C15.2551 35.1478 14.7011 35.3018 13.9831 35.3018ZM13.9911 38.3118C14.5321 38.3118 14.9131 38.2608 15.1341 38.1598C15.3551 38.0578 15.4661 37.8878 15.4661 37.6478C15.4661 37.4088 15.3551 37.2378 15.1341 37.1358C14.9131 37.0328 14.5321 36.9818 13.9911 36.9818C13.4451 36.9818 13.0601 37.0328 12.8361 37.1358C12.6121 37.2378 12.5 37.4088 12.5 37.6478C12.5 37.8858 12.6121 38.0558 12.8361 38.1578C13.0601 38.2598 13.4451 38.3118 13.9911 38.3118ZM13.9831 39.4268C13.2661 39.4268 12.7141 39.2718 12.3251 38.9628C11.9361 38.6538 11.7411 38.2158 11.7411 37.6478C11.7411 37.0788 11.9361 36.6388 12.3251 36.3308C12.7141 36.0218 13.2661 35.8668 13.9831 35.8668C14.7011 35.8668 15.2551 36.0218 15.6441 36.3308C16.0331 36.6388 16.2271 37.0788 16.2271 37.6478C16.2271 38.2158 16.0331 38.6538 15.6441 38.9628C15.2551 39.2718 14.7011 39.4268 13.9831 39.4268Z" fill="black"/>
<path d="M19.0031 2.2248L18.0939 2.30057C17.7592 2.32846 17.4878 2.62808 17.4878 2.96979V4.20725C17.4878 4.54896 17.7592 4.80336 18.0939 4.77547L19.0031 4.6997C19.3378 4.67181 19.6091 4.37219 19.6091 4.03048V2.79302C19.6091 2.45131 19.3378 2.19691 19.0031 2.2248Z" fill="#E7E7E7"/>
<path d="M15.266 2.71425L14.3568 2.82139C14.0221 2.86084 13.7507 3.16983 13.7507 3.51154V4.749C13.7507 5.09071 14.0221 5.33574 14.3568 5.29629L15.266 5.18915C15.6007 5.1497 15.8721 4.84071 15.8721 4.49901V3.26154C15.8721 2.91984 15.6007 2.6748 15.266 2.71425Z" fill="#E7E7E7"/>
<path opacity="0.78481" d="M11.2975 3.4079L10.4966 3.54182C10.2017 3.59113 9.96265 3.90811 9.96265 4.24982V5.48728C9.96265 5.82899 10.2017 6.06603 10.4966 6.01672L11.2975 5.88279C11.5923 5.83348 11.8314 5.5165 11.8314 5.17479V3.93733C11.8314 3.59562 11.5923 3.35858 11.2975 3.4079Z" fill="#E7E7E7"/>
<path opacity="0.55316" d="M7.95611 4.43791L7.22014 4.75934C6.94916 4.87769 6.72949 5.25064 6.72949 5.59235V6.82981C6.72949 7.17152 6.94916 7.35259 7.22014 7.23424L7.95611 6.91281C8.22708 6.79446 8.44675 6.42151 8.44675 6.0798V4.84234C8.44675 4.50063 8.22708 4.31956 7.95611 4.43791Z" fill="#E7E7E7"/>
<path opacity="0.75949" fill-rule="evenodd" clip-rule="evenodd" d="M9.22997 26.8099V28.1349C7.01997 27.6929 4.01496 26.1909 2.68896 24.2459V22.7439C4.01496 24.8649 6.40097 26.1909 9.22997 26.8099Z" fill="#222222"/>
<path opacity="0.37342" fill-rule="evenodd" clip-rule="evenodd" d="M9.22997 37.2578V38.5838C5.07597 36.8158 3.74996 35.4898 2.68896 33.2808V31.7778C4.27996 34.6058 6.48997 36.1088 9.22997 37.2578Z" fill="#222222"/>
<path opacity="0.37342" fill-rule="evenodd" clip-rule="evenodd" d="M9.22997 34.4229V35.7489C5.07597 33.9809 3.74996 32.6559 2.68896 30.4459V28.9429C4.27996 31.7719 6.48997 33.2739 9.22997 34.4229Z" fill="#222222"/>
<defs>
<linearGradient id="paint0_linear_8_79" x1="1.3811" y1="15.6468" x2="21.5741" y2="15.6468" gradientUnits="userSpaceOnUse">
<stop stop-color="#3C3C3C"/>
<stop offset="1" stop-color="#585858"/>
</linearGradient>
<linearGradient id="paint1_linear_8_79" x1="0.5" y1="26.0288" x2="25.643" y2="26.0288" gradientUnits="userSpaceOnUse">
<stop stop-color="#FFF7B1"/>
<stop offset="0.5" stop-color="#ECD300"/>
<stop offset="1" stop-color="#B5A200"/>
</linearGradient>
<linearGradient id="paint2_linear_8_79" x1="13.072" y1="19.3848" x2="13.072" y2="24.6878" gradientUnits="userSpaceOnUse">
<stop stop-color="#2A2500"/>
<stop offset="1" stop-color="#6E6200"/>
</linearGradient>
<linearGradient id="paint3_linear_8_79" x1="19.811" y1="29.6628" x2="24.609" y2="29.6628" gradientUnits="userSpaceOnUse">
<stop stop-color="#E7E7E7"/>
<stop offset="1" stop-color="#A0A0A0"/>
</linearGradient>
<linearGradient id="paint4_linear_8_79" x1="1.38693" y1="17.6747" x2="24.6449" y2="17.6747" gradientUnits="userSpaceOnUse">
<stop stop-color="#393939"/>
<stop offset="0.15888" stop-color="#747474"/>
<stop offset="1"/>
</linearGradient>
<linearGradient id="paint5_linear_8_79" x1="2.4699" y1="6.07178" x2="20.4979" y2="6.07178" gradientUnits="userSpaceOnUse">
<stop stop-color="white"/>
<stop offset="1" stop-color="white" stop-opacity="0"/>
</linearGradient>
<linearGradient id="paint6_linear_8_79" x1="13.0939" y1="16.2548" x2="13.0939" y2="22.1998" gradientUnits="userSpaceOnUse">
<stop stop-color="#222222"/>
<stop offset="1" stop-color="#AFAFAF"/>
</linearGradient>
<radialGradient id="paint7_radial_8_79" cx="0" cy="0" r="1" gradientUnits="userSpaceOnUse" gradientTransform="translate(13.7615 14.7012) scale(9.7857 6.14285)">
<stop stop-opacity="0"/>
<stop offset="0.7757" stop-color="#4D4D4D" stop-opacity="0.88166"/>
<stop offset="1" stop-color="#595959" stop-opacity="0"/>
</radialGradient>
<linearGradient id="paint8_linear_8_79" x1="21.3331" y1="12.5866" x2="7.9217" y2="12.4648" gradientUnits="userSpaceOnUse">
<stop/>
<stop offset="0.5" stop-color="#424242"/>
<stop offset="1" stop-color="#7C7C7C"/>
</linearGradient>
<linearGradient id="paint9_linear_8_79" x1="7.92847" y1="12.0222" x2="18.5005" y2="12.0222" gradientUnits="userSpaceOnUse">
<stop/>
<stop offset="0.5" stop-color="#424242"/>
<stop offset="1" stop-color="#7C7C7C"/>
</linearGradient>
<linearGradient id="paint10_linear_8_79" x1="8.09295" y1="12.0222" x2="19.0499" y2="12.0222" gradientUnits="userSpaceOnUse">
<stop stop-color="#B6B6B6"/>
<stop offset="1" stop-color="#6A6A6A"/>
</linearGradient>
</defs>
</svg>
